<svg width="283" height="293" viewBox="0 0 283 293" fill="none" xmlns="http://www.w3.org/2000/svg">
<g clip-path="url(#clip0_9130_2)">
<path d="M160.549 191.052L235.912 269.078" stroke="#1AA090" stroke-width="16"/>
<path d="M185.089 165.645L260.452 243.672" stroke="#1AA090" stroke-width="16"/>
<path d="M260.452 243.671C263.707 247.041 265.535 251.61 265.535 256.375C265.535 261.14 263.707 265.709 260.452 269.078" stroke="#1AA090" stroke-width="16" stroke-linecap="round" stroke-linejoin="round"/>
<path d="M235.913 269.078C239.167 272.448 243.58 274.34 248.183 274.34C252.785 274.34 257.198 272.448 260.452 269.078" stroke="#1AA090" stroke-width="16" stroke-linecap="round" stroke-linejoin="round"/>
<path d="M95.6054 17.5619C105.86 17.5619 116.014 19.653 125.487 23.7158C134.961 27.7787 143.569 33.7336 150.82 41.2408C158.071 48.7479 163.823 57.6601 167.747 67.4686C171.671 77.2771 173.691 87.7898 173.691 98.4065C173.691 109.023 171.671 119.536 167.747 129.344C163.823 139.153 158.071 148.065 150.82 155.572C143.569 163.079 134.961 169.034 125.487 173.097C116.014 177.16 105.86 179.251 95.6054 179.251C74.8959 179.251 55.0345 170.734 40.3907 155.572C25.7468 140.411 17.52 119.848 17.52 98.4065C17.52 87.7898 19.5398 77.2771 23.4639 67.4686C27.3881 57.6601 33.1398 48.7479 40.3907 41.2408C47.6416 33.7336 56.2497 27.7787 65.7234 23.7158C75.1972 19.653 85.3511 17.5619 95.6054 17.5619Z" stroke="#1AA090" stroke-width="16" stroke-linecap="round" stroke-linejoin="round"/>
<path d="M160.549 191.052L185.089 165.645" stroke="#1AA090" stroke-width="16" stroke-linecap="round" stroke-linejoin="round"/>
<path d="M172.819 178.348L150.82 155.572" stroke="#1AA090" stroke-width="16" stroke-linecap="round" stroke-linejoin="round"/>
<path d="M181.495 212.738L206.035 187.331" stroke="#1AA090" stroke-width="16" stroke-linecap="round" stroke-linejoin="round"/>
<path d="M95.6055 53.4928C107.111 53.4928 118.145 58.2248 126.28 66.6478C134.416 75.0707 138.986 86.4947 138.986 98.4065" stroke="#1AA090" stroke-width="16" stroke-linecap="round" stroke-linejoin="round"/>
</g>
<defs>
<clipPath id="clip0_9130_2">
<rect width="293" height="283" fill="white" transform="matrix(0 -1 1 0 0 293)"/>
</clipPath>
</defs>
</svg>
